<?xml version="1.0" standalone="no"?>
<!DOCTYPE svg PUBLIC "-//W3C//DTD SVG 20010904//EN"
 "http://www.w3.org/TR/2001/REC-SVG-20010904/DTD/svg10.dtd">
<svg version="1.0" xmlns="http://www.w3.org/2000/svg"
 width="332.000000pt" height="332.000000pt" viewBox="0 0 332.000000 332.000000"
 preserveAspectRatio="xMidYMid meet">
<metadata>
Created by potrace 1.11, written by Peter Selinger 2001-2013
</metadata>
<g transform="translate(0.000000,332.000000) scale(0.100000,-0.100000)"
fill="#000000" stroke="none">
<path d="M0 3305 c0 -13 4 -14 20 -5 25 14 25 20 0 20 -11 0 -20 -7 -20 -15z"/>
<path d="M146 3309 c3 -6 1 -22 -7 -35 -10 -19 -10 -27 -1 -36 19 -19 14 -55
-10 -78 -26 -24 -48 -26 -48 -5 0 9 -11 20 -23 24 -13 5 -31 17 -40 26 -16 15
-17 -32 -17 -686 l0 -703 28 31 c33 38 82 54 82 28 0 -9 -4 -14 -9 -10 -5 3
-12 1 -15 -3 -7 -12 22 -52 38 -52 21 0 49 -85 37 -108 -13 -24 -55 -18 -76
11 -11 16 -17 18 -29 8 -11 -9 -16 -9 -22 0 -4 7 1 18 11 26 18 12 18 13 -1
13 -11 0 -25 5 -32 12 -9 9 -12 -54 -12 -284 l0 -296 25 -6 c34 -9 34 -43 0
-52 l-25 -6 0 -564 0 -564 273 0 c193 0 276 3 285 12 8 8 15 8 25 0 10 -9 350
-12 1323 -12 1107 1 1306 3 1291 14 -10 8 -26 12 -36 9 -17 -4 -19 2 -19 57 1
42 -4 65 -13 72 -11 7 -11 11 -1 15 31 12 -1 72 -33 59 -17 -6 -22 -76 -5 -76
6 0 10 -5 10 -10 0 -7 -6 -7 -19 0 -11 5 -31 10 -45 10 -18 0 -29 9 -40 32 -9
17 -16 32 -16 33 0 1 12 0 28 -2 24 -4 25 -3 10 9 -14 12 -15 22 -8 53 5 22
14 41 19 43 6 2 11 13 11 25 0 50 63 187 85 187 18 0 35 -22 35 -46 0 -20 6
-23 58 -26 31 -1 67 -2 80 0 l22 3 0 654 c0 644 0 654 -21 689 -18 31 -19 38
-6 56 7 11 17 17 20 13 4 -3 7 87 7 201 0 219 -3 231 -47 210 -29 -13 -86 -14
-110 -2 -28 14 -29 39 -3 63 11 10 17 22 14 27 -3 5 5 17 18 28 19 16 21 21 9
29 -12 8 -11 13 10 30 23 20 37 21 87 6 l22 -7 0 225 c0 213 -1 226 -19 232
-10 3 -23 5 -27 3 -18 -4 -55 14 -51 25 4 13 40 15 75 3 22 -7 22 -6 22 78 l0
84 -32 11 c-18 6 -43 26 -56 45 -14 21 -37 38 -63 46 -22 8 -45 22 -50 32 -5
10 -20 18 -32 18 -21 -1 -21 -2 6 -23 22 -19 27 -31 27 -70 0 -41 -3 -49 -25
-59 -17 -8 -28 -8 -37 0 -16 13 -24 132 -9 132 6 0 11 5 11 12 0 6 -10 2 -23
-10 -29 -27 -39 -27 -61 -3 -23 25 -17 52 14 68 22 11 16 13 -56 13 -99 0
-175 -10 -168 -21 3 -5 20 -9 38 -9 34 0 66 -25 66 -51 0 -8 -17 -33 -38 -56
-31 -33 -42 -39 -56 -31 -13 7 -23 5 -37 -8 -20 -18 -26 -68 -10 -78 5 -4 8
-14 7 -24 -2 -12 -14 -18 -42 -20 -52 -4 -105 38 -108 85 -1 20 -10 38 -26 51
-24 19 -24 21 -11 71 12 47 11 54 -4 72 -22 24 -115 28 -115 5 0 -23 -29 -27
-42 -6 -7 11 -22 20 -32 20 -19 0 -19 0 -1 -14 13 -9 16 -18 10 -32 -10 -21
-12 -31 -14 -57 0 -10 -5 -15 -11 -12 -5 3 -21 -2 -35 -11 -20 -13 -25 -24
-25 -58 0 -45 -13 -66 -42 -66 -33 0 -52 72 -26 98 7 7 24 12 38 12 24 0 26 3
26 55 1 42 -3 55 -14 55 -8 0 -12 6 -8 15 5 13 -15 15 -141 15 l-146 0 7 -57
c4 -32 12 -61 19 -65 9 -6 9 -10 -1 -20 -6 -6 -12 -8 -12 -4 0 5 -7 3 -15 -4
-12 -10 -18 -10 -31 0 -40 34 -37 79 8 128 l21 22 -390 0 -391 0 0 -32 c1 -44
-4 -61 -22 -75 -13 -11 -13 -12 3 -13 23 0 22 -17 -2 -30 -13 -6 -22 -7 -26 0
-9 14 -84 33 -132 33 -44 0 -73 -16 -73 -40 0 -11 -12 -13 -60 -7 -56 6 -60 5
-60 -14 0 -20 -25 -37 -41 -26 -19 11 -8 35 25 55 31 18 34 23 30 62 -6 56 5
70 55 69 22 0 43 3 46 9 8 13 -127 12 -161 -1 -19 -8 -30 -8 -38 0 -15 15
-590 14 -580 -1z m1441 -31 c31 -29 29 -38 -15 -78 -46 -42 -106 -53 -115 -21
-3 11 1 28 9 38 7 10 14 24 14 32 0 24 32 51 58 51 14 0 36 -10 49 -22z m831
-70 c17 -17 15 -38 -3 -38 -8 0 -15 7 -15 15 0 8 -5 15 -11 15 -5 0 -7 5 -4
10 8 13 18 13 33 -2z m-2178 -29 c10 -18 9 -20 -12 -17 -12 2 -24 11 -26 21
-5 24 25 22 38 -4z m1203 -13 c20 -15 23 -36 4 -36 -7 0 -14 -14 -15 -32 -3
-44 -36 -77 -60 -62 -37 24 -1 143 43 143 6 0 18 -6 28 -13z m-373 -16 c0 12
3 11 17 -3 12 -12 16 -30 14 -59 -3 -55 -22 -75 -53 -61 -17 8 -31 6 -55 -5
-17 -8 -38 -12 -47 -9 -25 10 -31 55 -12 94 16 34 18 35 36 18 20 -18 44 -11
70 20 11 13 15 13 21 3 7 -10 9 -10 9 2z m125 -20 c3 -5 -1 -10 -10 -10 -9 0
-13 5 -10 10 3 6 8 10 10 10 2 0 7 -4 10 -10z m1719 -5 c9 -25 -12 -64 -38
-71 -50 -12 -88 40 -54 74 18 18 85 15 92 -3z m328 -1 c12 -11 -24 -64 -43
-64 -10 0 -19 2 -19 4 0 2 -3 13 -7 23 -6 16 -5 16 10 5 18 -15 37 -8 37 13 0
8 -8 12 -22 9 -21 -4 -22 -4 -3 5 24 11 40 13 47 5z m-3034 -44 c10 -16 8 -25
-8 -52 -16 -28 -26 -34 -52 -33 -27 0 -34 4 -36 24 -5 31 17 71 43 81 25 9 37
5 53 -20z m1456 -5 c-4 -8 -1 -22 6 -29 9 -12 7 -17 -8 -25 -17 -9 -21 -7 -27
16 -5 20 -2 31 11 40 23 17 25 16 18 -2z m-151 -30 c25 -18 14 -53 -20 -61
-19 -5 -30 -2 -40 11 -18 26 -16 53 5 58 29 8 36 7 55 -8z m1067 -51 c0 -13 5
-23 12 -21 6 1 15 -13 19 -31 4 -19 12 -39 18 -45 14 -14 14 -50 0 -64 -7 -7
-25 -9 -40 -6 -22 4 -29 2 -29 -11 0 -9 -6 -16 -14 -16 -8 0 -16 -6 -19 -12
-7 -23 -19 169 -12 205 11 55 65 55 65 1z m544 31 c11 -8 28 -15 37 -15 29 0
34 -54 9 -90 -12 -17 -25 -28 -30 -25 -5 3 -11 1 -15 -5 -4 -7 -12 -7 -26 0
-18 10 -23 6 -20 -12 2 -17 -43 -1 -106 37 -37 22 -42 40 -15 54 22 11 71 11
78 0 11 -19 24 -8 18 16 -12 47 30 70 70 40z m-718 -3 c15 -10 5 -72 -11 -72
-20 0 -28 38 -16 78 2 4 16 2 27 -6z m-1296 -17 c0 -8 -6 -15 -14 -15 -17 0
-28 14 -19 24 12 12 33 6 33 -9z m1725 -85 c3 -5 2 -10 -4 -10 -5 0 -13 5 -16
10 -3 6 -2 10 4 10 5 0 13 -4 16 -10z m-2501 -32 c15 -28 15 -34 1 -55 -18
-26 -24 -28 -49 -10 -26 19 -28 65 -2 82 28 21 32 19 50 -17z m853 -15 c4 -9
18 -27 31 -38 20 -17 24 -27 18 -48 -4 -18 -13 -27 -26 -27 -24 0 -53 41 -44
64 4 11 1 16 -10 16 -19 0 -21 21 -4 38 17 17 27 15 35 -5z m843 -31 c17 -13
20 -24 15 -45 -4 -15 -11 -27 -16 -27 -15 0 -10 -22 9 -43 17 -19 16 -20 -11
-13 -17 4 -35 2 -42 -4 -23 -19 -55 -2 -55 28 0 67 12 101 39 111 36 13 36 13
61 -7z m1143 -33 c15 -24 -16 -69 -47 -69 -37 0 -49 46 -20 75 20 19 53 16 67
-6z m-2986 -3 c-4 -10 0 -12 14 -9 14 4 19 0 19 -15 0 -25 -23 -44 -44 -36
-19 7 -22 24 -4 24 9 0 9 3 1 11 -9 9 -8 15 0 25 16 17 20 17 14 0z m2831 4
c22 0 24 -3 18 -32 -9 -45 -24 -58 -68 -58 -22 0 -48 -5 -59 -11 -15 -7 -24
-7 -34 1 -8 7 -18 9 -24 6 -5 -3 -8 2 -6 11 2 10 4 23 4 30 1 7 13 24 28 39
23 23 32 26 71 20 25 -3 56 -6 70 -6z m-375 -69 c-1 -19 -8 -38 -17 -43 -8 -5
-13 -15 -10 -22 3 -8 1 -17 -5 -21 -6 -3 -11 -14 -11 -24 0 -21 -26 -46 -57
-55 -18 -6 -25 -2 -34 18 -10 22 -8 30 25 73 20 26 43 63 51 81 12 25 21 33
38 30 18 -2 22 -9 20 -37z m-2335 -3 c16 -14 15 -23 -4 -42 -20 -21 -63 -21
-71 0 -3 8 -1 27 6 40 9 20 16 24 34 18 12 -3 28 -11 35 -16z m2046 6 c21 -20
20 -31 -3 -44 -27 -14 -37 -13 -56 6 -15 15 -15 18 1 35 21 23 38 24 58 3z
m-587 -61 c61 -83 62 -125 3 -138 -38 -8 -60 8 -60 46 0 15 -4 31 -10 34 -17
10 -11 37 12 62 27 29 30 29 55 -4z m541 -30 c20 -47 19 -77 -2 -70 -6 2 -10
12 -8 22 2 10 -1 14 -8 10 -12 -7 -50 21 -50 38 0 11 31 45 41 46 4 1 16 -20
27 -46z m-657 -67 c22 -47 -27 -91 -51 -46 -11 20 -8 32 15 57 15 18 24 16 36
-11z m-817 -32 c11 -30 6 -53 -14 -59 -25 -8 -40 1 -40 25 0 31 11 50 30 50
10 0 21 -7 24 -16z m1506 1 c0 -8 5 -14 11 -12 6 1 16 -6 22 -16 10 -14 9 -20
-3 -27 -24 -15 -27 -13 -38 30 -5 23 -6 40 -1 40 5 0 9 -7 9 -15z m-2043 -73
c1 -23 -3 -32 -14 -32 -9 0 -13 6 -10 14 3 7 1 18 -5 24 -6 6 -7 15 -3 22 12
20 30 4 32 -28z m1148 14 c24 -18 13 -45 -25 -59 -17 -6 -30 -16 -30 -22 0
-18 -48 -78 -73 -91 -43 -24 -61 17 -28 64 10 15 21 39 24 53 6 25 50 54 67
44 4 -3 10 2 14 10 7 19 26 19 51 1z m742 -52 c34 -38 44 -74 19 -74 -22 0
-24 -23 -5 -44 10 -10 16 -22 14 -27 -3 -4 0 -18 5 -31 10 -23 10 -23 6 -1 -7
36 11 36 19 0 6 -27 8 -29 14 -13 5 14 10 16 15 8 13 -21 28 -13 24 13 -7 35
18 32 37 -5 17 -34 20 -60 5 -60 -6 0 -8 -12 -5 -27 6 -28 6 -28 -7 -5 -8 12
-17 19 -21 16 -4 -4 -7 0 -7 9 0 22 -16 22 -24 1 -6 -16 -8 -16 -24 0 -10 9
-21 16 -24 16 -7 0 16 -81 45 -160 24 -65 31 -140 40 -439 1 -55 6 -86 14 -88
7 -3 15 8 18 24 4 15 11 36 16 46 7 14 6 25 -6 43 -15 23 -15 26 5 51 l20 26
0 -29 c0 -16 3 -47 7 -69 l7 -40 12 58 c7 34 8 74 4 100 -9 46 -7 53 11 42 18
-12 4 -150 -25 -248 -14 -45 -28 -99 -32 -120 -3 -21 -14 -42 -25 -48 -13 -7
-19 -6 -19 1 0 22 -19 -1 -30 -38 -11 -35 -34 -62 -52 -62 -4 0 -5 7 -2 15 4
8 1 15 -5 15 -6 0 -11 -7 -11 -15 0 -8 -4 -15 -9 -15 -21 0 -41 13 -41 26 0
12 -4 12 -20 4 -11 -6 -18 -15 -15 -19 3 -5 -2 -11 -10 -15 -8 -3 -15 -12 -15
-21 0 -9 -9 -15 -21 -15 -16 0 -20 -5 -16 -19 3 -12 -3 -27 -14 -37 -17 -15
-19 -15 -25 0 -9 23 -23 10 -16 -16 4 -15 2 -19 -7 -14 -17 11 -48 -24 -43
-48 2 -10 -1 -23 -7 -29 -8 -8 -11 -7 -11 3 0 9 -6 6 -16 -8 -9 -13 -14 -32
-11 -43 6 -21 -8 -27 -16 -6 -4 7 -8 4 -12 -8 -3 -12 -15 -27 -27 -34 -11 -7
-17 -8 -13 -2 3 6 1 11 -4 11 -6 0 -11 -4 -11 -9 0 -19 -54 -37 -89 -30 -19 4
-40 5 -47 2 -7 -2 -24 3 -38 12 -14 10 -35 15 -45 12 -14 -3 -18 -1 -14 9 3 8
-5 18 -21 24 -14 5 -28 20 -32 35 -3 14 -11 25 -16 25 -6 0 0 9 13 21 16 13
20 22 12 25 -7 3 -9 12 -6 20 3 9 -2 14 -15 14 -28 0 -37 -16 -16 -28 9 -5 14
-14 10 -21 -9 -14 -26 -14 -26 1 0 22 -33 48 -61 48 -23 0 -26 3 -22 21 5 18
2 21 -23 19 -46 -3 -54 -1 -48 15 4 9 0 15 -8 15 -10 0 -24 29 -42 85 -26 81
-28 85 -64 94 -21 6 -38 7 -42 1 -8 -13 -61 -32 -76 -26 -11 4 -56 -4 -101
-18 -20 -6 -23 -4 -23 17 0 28 36 47 99 54 43 5 44 6 43 45 -2 46 7 68 23 62
24 -10 29 40 9 98 -16 48 -27 159 -14 137 3 -4 11 5 17 21 9 23 8 28 -3 23 -9
-3 -14 2 -14 16 0 14 5 19 15 15 10 -4 15 0 16 12 0 12 4 7 10 -11 5 -16 7
-45 4 -63 -4 -22 -3 -32 4 -28 16 10 25 -15 32 -92 6 -71 13 -92 26 -79 3 4
10 59 14 123 5 63 11 125 15 137 4 12 6 58 5 102 -2 97 24 180 79 252 27 36
44 49 70 54 19 3 82 16 140 29 58 12 132 24 165 25 165 7 278 22 270 36 -4 5
10 9 31 9 36 0 41 11 6 15 -28 3 -52 16 -47 26 3 4 13 5 22 2 11 -5 14 -3 8 6
-6 10 -3 11 14 2 17 -10 21 -9 21 4 0 8 8 15 17 15 13 0 14 3 5 12 -7 7 -12
19 -12 28 0 12 2 13 9 1 7 -11 10 -9 16 8 9 31 34 26 72 -15z m-1025 -1 c10
-9 18 -22 18 -29 0 -21 -30 -44 -56 -44 -20 0 -24 5 -24 29 0 26 21 61 37 61
4 0 15 -7 25 -17z m-1026 -42 c-9 -13 -46 -15 -46 -1 0 14 34 30 44 20 4 -4 5
-13 2 -19z m771 -13 c-3 -8 -6 -5 -6 6 -1 11 2 17 5 13 3 -3 4 -12 1 -19z
m-109 -47 c-2 -42 -6 -57 -15 -54 -21 8 -28 -28 -8 -43 12 -9 16 -20 11 -38
-7 -29 -24 -34 -32 -11 -4 8 -10 13 -14 10 -7 -4 -3 119 6 162 3 19 16 27 47
32 5 0 7 -25 5 -58z m330 -27 c21 -10 32 -23 32 -37 0 -20 -6 -22 -57 -24 -31
-1 -63 3 -71 9 -11 10 -8 17 20 40 39 33 37 32 76 12z m1517 -40 c50 -42 65
-70 58 -107 -6 -32 -32 -36 -58 -7 -10 11 -21 20 -25 20 -4 0 -10 -23 -13 -52
-4 -28 -11 -56 -16 -61 -32 -32 -63 51 -37 101 9 18 13 43 9 70 -11 81 14 92
82 36z m-365 16 c0 -5 -5 -10 -11 -10 -5 0 -7 5 -4 10 3 6 8 10 11 10 2 0 4
-4 4 -10z m823 -67 c3 -5 7 -21 8 -38 4 -26 1 -30 -21 -30 -14 0 -31 4 -37 9
-14 9 -18 48 -6 59 9 9 51 9 56 0z m-3019 -20 c4 -8 -2 -12 -16 -9 -12 1 -24
8 -26 14 -5 15 36 11 42 -5z m982 -21 c18 -12 27 -52 14 -67 -6 -8 -9 -22 -6
-32 3 -10 2 -24 -2 -30 -9 -14 -117 -37 -137 -29 -22 8 -28 61 -10 95 24 48
108 85 141 63z m-234 -24 c28 -23 28 -53 -3 -82 -31 -29 -33 -28 -43 27 -5 25
-3 44 5 53 14 17 21 18 41 2z m2278 -33 c25 -4 54 -15 66 -26 11 -10 28 -19
38 -19 26 0 56 -19 56 -35 0 -7 -13 -27 -30 -43 -31 -31 -37 -48 -20 -54 6 -2
6 -18 0 -45 -7 -27 -6 -51 0 -68 12 -31 1 -58 -34 -80 -27 -18 -27 -44 1 -74
29 -31 19 -58 -22 -63 -31 -4 -35 -1 -51 39 -17 41 -44 59 -44 29 0 -8 -8 -17
-17 -20 -12 -5 -14 -9 -5 -18 19 -19 15 -26 -28 -54 -53 -36 -90 -28 -90 19 0
40 24 77 52 77 11 0 22 8 25 20 3 11 11 20 18 20 8 0 17 9 20 20 3 11 11 20
16 20 5 0 14 11 19 25 5 14 16 25 25 25 8 0 15 4 15 9 0 14 -32 24 -66 22 -21
-2 -33 3 -37 13 -5 11 -20 16 -51 16 -36 0 -48 -4 -57 -21 -8 -15 -14 -18 -22
-10 -6 6 -17 11 -25 11 -13 0 -42 23 -42 34 0 3 7 6 15 6 8 0 16 8 17 18 2 25
4 35 12 54 7 16 10 16 31 2 17 -11 36 -14 69 -9 27 4 51 3 59 -3 6 -5 22 -13
35 -16 16 -6 22 -3 22 8 0 9 -4 16 -9 16 -5 0 -14 14 -20 31 -12 34 -65 89
-87 89 -20 0 -17 38 4 44 17 5 59 2 142 -9z m-2930 -65 c0 -5 -7 -10 -16 -10
-9 0 -12 -5 -8 -12 5 -7 3 -8 -6 -3 -10 6 -9 11 5 22 22 16 25 16 25 3z m1005
-16 c9 -9 15 -26 13 -38 -2 -17 -11 -22 -45 -24 -35 -3 -41 -6 -36 -20 4 -9
15 -23 25 -30 21 -15 24 -48 4 -55 -7 -3 -29 8 -47 23 -19 16 -40 29 -46 30
-20 0 -15 14 12 34 14 11 24 25 21 33 -3 7 -1 13 4 13 6 0 10 9 10 19 0 31 59
41 85 15z m-1125 -14 c0 -5 -4 -10 -10 -10 -5 0 -10 5 -10 10 0 6 5 10 10 10
6 0 10 -4 10 -10z m2524 -202 c-4 -93 -3 -168 1 -168 5 0 16 7 26 16 9 8 26
16 38 17 11 1 21 1 21 2 0 0 -4 16 -10 35 -11 40 -5 70 15 70 8 0 16 -9 20
-19 3 -10 16 -22 28 -25 12 -3 32 -14 44 -25 18 -18 20 -24 10 -46 -8 -17 -18
-24 -29 -21 -10 2 -18 1 -18 -3 0 -15 32 -51 46 -51 19 0 18 -5 -10 -35 -31
-33 -76 -31 -91 3 -5 12 -13 22 -17 22 -14 0 -8 -47 7 -60 8 -7 15 -29 15 -49
0 -21 6 -46 14 -57 14 -19 15 -19 33 2 15 18 20 19 31 8 18 -20 15 -33 -13
-46 -18 -8 -28 -8 -39 1 -11 9 -20 10 -35 2 -11 -6 -29 -11 -40 -11 -38 0 -26
-38 19 -57 42 -19 50 -30 25 -39 -8 -4 -15 -13 -15 -21 0 -7 -6 -13 -12 -11
-19 3 -60 -12 -80 -29 -9 -8 -27 -13 -40 -11 -21 3 -23 9 -26 68 -2 57 1 70
24 107 25 38 29 40 41 25 11 -15 12 -15 13 -1 0 9 7 22 15 29 27 22 18 43 -15
38 -56 -8 -63 13 -59 169 2 76 2 163 1 193 -1 30 1 69 3 87 7 39 46 87 58 70
4 -7 4 -87 1 -179z m293 176 c-3 -3 -12 -4 -19 -1 -8 3 -5 6 6 6 11 1 17 -2
13 -5z m-1853 -143 c14 -27 14 -29 -11 -40 -44 -20 -93 25 -61 57 22 22 57 14
72 -17z m1912 -38 c21 -28 17 -50 -11 -55 -20 -4 -26 -1 -31 18 -12 48 16 71
42 37z m-2698 -155 c12 -12 16 -95 6 -122 -3 -9 -12 -16 -20 -16 -8 0 -14 -7
-14 -15 0 -9 -9 -15 -21 -15 -21 0 -21 4 -17 64 4 40 13 74 24 90 22 29 26 30
42 14z m-136 -38 c20 -6 39 -17 42 -25 9 -24 -4 -45 -28 -45 -11 0 -37 -3 -57
-6 -35 -6 -36 -5 -36 27 0 19 7 39 16 46 20 15 18 15 63 3z m668 -98 c0 -41
-14 -62 -42 -62 -25 0 -24 54 2 80 29 29 40 25 40 -18z m2117 7 c7 -14 13 -49
14 -77 2 -57 7 -60 45 -35 25 16 26 15 54 -13 28 -28 29 -30 12 -51 -11 -15
-30 -24 -55 -25 -26 -2 -39 -9 -43 -21 -3 -10 -20 -25 -37 -32 -19 -9 -25 -14
-14 -15 21 0 23 -38 4 -64 -10 -14 -18 -15 -39 -7 -14 5 -29 15 -33 20 -11 19
-26 12 -37 -19 -11 -34 -54 -52 -69 -29 -15 23 -10 55 11 74 11 10 22 33 26
51 3 19 9 32 13 29 4 -2 25 12 46 31 l39 34 -23 31 c-26 35 -24 82 4 126 22
32 65 28 82 -8z m-2617 -83 c-13 -13 -35 7 -25 24 5 8 11 8 21 -1 10 -8 12
-15 4 -23z m960 -165 c7 -15 5 -24 -8 -41 -18 -22 -19 -22 -50 -6 -32 16 -33
23 -9 54 14 18 55 14 67 -7z m-203 -63 c-3 -7 -5 -2 -5 12 0 14 2 19 5 13 2
-7 2 -19 0 -25z m1154 9 c-10 -9 -11 -8 -5 6 3 10 9 15 12 12 3 -3 0 -11 -7
-18z m24 -17 c-3 -5 -11 -10 -16 -10 -6 0 -7 5 -4 10 3 6 11 10 16 10 6 0 7
-4 4 -10z m-858 -72 c-4 -13 1 -30 13 -45 10 -13 16 -32 13 -43 -3 -11 0 -20
6 -20 6 0 11 -8 11 -19 0 -10 6 -24 14 -30 7 -6 13 -21 12 -34 -1 -12 10 -32
23 -44 13 -13 21 -23 17 -23 -16 0 18 -41 46 -56 32 -17 67 -53 80 -83 5 -12
7 -10 7 7 1 27 21 20 21 -7 0 -14 6 -17 25 -13 14 2 28 8 31 13 8 14 24 11 24
-5 0 -15 46 -11 68 7 9 7 16 6 25 -3 8 -8 8 -11 1 -7 -7 4 -18 -1 -25 -10 -12
-15 -12 -16 4 -10 14 5 16 3 9 -10 -5 -9 -7 -24 -5 -34 4 -13 0 -19 -13 -20
-11 0 -14 -3 -8 -5 7 -3 10 -14 7 -24 -6 -21 13 -25 77 -20 28 2 90 37 90 50
0 5 14 12 31 15 24 6 28 9 18 17 -11 7 -11 11 -2 15 13 4 64 55 91 87 7 9 10
21 7 26 -3 6 -2 10 4 10 5 0 12 -6 14 -12 3 -7 6 -4 7 7 0 11 7 29 15 39 8 11
12 29 9 43 -5 16 -2 23 9 23 13 0 13 4 4 24 -12 25 -12 25 -23 4 -11 -20 -12
-20 -11 6 0 15 6 30 13 33 8 3 14 9 14 15 0 13 26 38 41 38 8 0 9 4 0 13 -8
10 -2 21 26 48 19 19 33 27 30 19 -3 -8 -11 -33 -17 -55 -7 -22 -16 -49 -21
-60 -5 -11 -11 -36 -13 -55 -4 -32 -19 -123 -31 -177 -4 -16 7 -36 39 -72 25
-28 46 -45 48 -40 2 6 11 2 20 -8 16 -18 14 -22 -45 -93 -51 -61 -76 -82 -137
-113 -95 -48 -167 -60 -305 -54 -141 6 -239 37 -350 112 -101 67 -251 215
-287 282 l-28 50 28 12 c43 20 146 92 162 115 22 30 37 77 45 140 4 31 12 56
17 56 6 0 8 -10 5 -22z m893 12 c0 -5 -4 -10 -10 -10 -5 0 -10 5 -10 10 0 6 5
10 10 10 6 0 10 -4 10 -10z m324 -23 c8 8 131 7 145 -1 13 -9 1 -46 -15 -46
-8 0 -14 -6 -14 -14 0 -23 -29 -46 -59 -46 -30 0 -51 16 -51 39 0 9 -12 25
-26 38 -14 12 -23 27 -19 33 5 8 11 8 19 1 7 -6 16 -8 20 -4z m734 -9 c3 -15
-1 -15 -27 -5 -38 14 -40 29 -4 25 16 -2 29 -10 31 -20z m-3118 -28 c0 -13 -5
-18 -15 -14 -8 4 -15 1 -15 -5 0 -6 -4 -11 -10 -11 -5 0 -10 11 -10 25 0 20 5
25 25 25 18 0 25 -5 25 -20z m1310 -11 c0 -4 -9 -7 -20 -6 -11 1 -20 2 -20 3
0 1 3 10 6 18 5 13 9 14 20 5 8 -6 14 -15 14 -20z m988 -31 c-3 -47 -21 -60
-38 -28 -16 31 -5 70 21 70 18 0 20 -5 17 -42z m-1292 -28 c16 -6 35 -19 41
-30 19 -29 -7 -47 -80 -55 -86 -9 -111 -5 -115 21 -2 16 8 26 55 46 70 31 63
30 99 18z m1785 -11 c12 -23 7 -29 -33 -47 -37 -15 -45 1 -18 38 25 36 35 37
51 9z m-1981 -11 c11 -12 20 -25 20 -29 0 -9 -57 -20 -74 -13 -8 3 -25 -2 -39
-10 -49 -33 -145 -15 -115 21 19 24 51 37 103 44 81 10 83 10 105 -13z m1460
-87 c0 -55 -6 -64 -31 -50 -21 11 -25 46 -8 83 18 39 39 21 39 -33z m-340 -31
c0 -5 -5 -10 -11 -10 -5 0 -7 5 -4 10 3 6 8 10 11 10 2 0 4 -4 4 -10z m787
-42 c34 0 67 -43 66 -85 -1 -19 -6 -39 -11 -42 -24 -15 -60 -81 -55 -100 3
-12 1 -21 -6 -21 -6 0 -11 -9 -11 -19 0 -29 -35 -15 -62 25 -22 33 -37 42 -39
27 -3 -16 -9 -69 -13 -108 -2 -22 -4 -43 -5 -47 -3 -18 -21 -6 -41 26 -24 39
-74 72 -124 82 -40 7 -52 19 -54 53 -2 34 -13 42 -47 32 -24 -7 -27 -10 -13
-16 9 -3 19 -14 22 -22 7 -16 -10 -43 -26 -43 -11 0 -41 70 -34 78 3 3 -3 11
-14 19 -22 16 -27 62 -8 81 9 9 14 8 22 -3 6 -8 29 -15 51 -17 40 -3 40 -3 45
37 l5 40 90 1 c50 0 112 7 139 16 27 8 61 13 75 10 14 -2 36 -4 48 -4z m291
-70 c20 -20 14 -45 -13 -51 -34 -6 -52 24 -29 47 19 19 26 20 42 4z m-868 -22
c0 -13 3 -31 6 -40 7 -18 -4 -20 -25 -7 -9 6 -11 18 -6 40 8 37 25 41 25 7z
m-2037 5 c4 -1 7 -11 7 -24 0 -25 -38 -47 -152 -90 -61 -22 -111 -26 -123 -8
-2 4 5 22 15 39 24 39 87 72 137 72 21 0 44 4 51 8 7 5 23 7 35 6 12 -1 25 -3
30 -3z m1367 -1 c0 -5 -2 -10 -4 -10 -3 0 -8 5 -11 10 -3 6 -1 10 4 10 6 0 11
-4 11 -10z m1220 -261 c5 -18 1 -29 -19 -45 -22 -17 -29 -19 -50 -8 l-23 12
33 35 c38 40 50 41 59 6z"/>
<path d="M2530 2830 c0 -11 5 -20 10 -20 6 0 10 9 10 20 0 11 -4 20 -10 20 -5
0 -10 -9 -10 -20z"/>
<path d="M2120 2431 c0 -10 19 -25 25 -20 1 2 -3 10 -11 17 -8 7 -14 8 -14 3z"/>
<path d="M2116 2374 c-3 -9 -2 -12 5 -9 5 4 16 2 23 -4 10 -9 15 -8 19 3 3 8
-1 17 -9 20 -24 9 -31 7 -38 -10z"/>
<path d="M2000 1906 c-87 -25 -131 -62 -144 -122 -9 -41 34 -88 74 -80 32 6
116 -14 99 -24 -7 -5 0 -10 20 -15 25 -5 36 -3 47 12 9 10 13 13 10 6 -4 -7 1
-9 13 -6 11 3 17 11 15 18 -8 19 14 29 31 15 12 -10 17 -7 26 14 7 14 16 26
21 26 13 0 9 60 -7 93 -32 66 -109 90 -205 63z m110 -101 c16 -9 19 -14 10
-15 -9 0 -20 4 -25 9 -6 5 -23 11 -40 14 l-30 4 30 1 c17 1 41 -5 55 -13z
m-100 -45 c0 -11 7 -23 15 -26 23 -9 65 5 65 21 0 21 13 19 27 -5 11 -17 10
-20 -20 -25 -77 -12 -167 -9 -167 6 0 6 9 9 20 6 11 -3 23 -1 26 4 3 5 -1 9
-8 9 -8 1 -6 6 6 15 27 20 36 19 36 -5z"/>
<path d="M1480 1901 c-32 -10 -70 -34 -70 -43 0 -13 28 -9 44 7 9 9 17 11 21
5 3 -5 17 -10 30 -10 37 0 39 -17 3 -24 -41 -8 -78 -43 -78 -73 0 -29 9 -29
42 2 33 31 36 31 40 3 2 -19 9 -23 38 -23 28 0 35 4 40 24 4 19 7 21 16 10 13
-16 15 -51 2 -43 -4 3 -16 0 -25 -5 -10 -6 -14 -11 -9 -11 6 0 2 -6 -8 -13
-17 -12 -16 -14 13 -14 17 0 31 4 31 9 0 4 9 8 21 8 15 0 19 5 15 15 -3 8 -1
15 4 15 5 0 16 7 25 16 17 17 13 61 -9 96 -21 34 -136 64 -186 49z m84 -80 c3
-5 -9 -9 -28 -9 -18 0 -47 -8 -62 -18 -28 -18 -29 -18 -14 0 24 31 91 48 104
27z"/>
<path d="M1940 1690 c0 -5 5 -10 11 -10 5 0 7 5 4 10 -3 6 -8 10 -11 10 -2 0
-4 -4 -4 -10z"/>
<path d="M1928 1529 c-3 -33 -4 -34 -51 -37 -27 -2 -67 -13 -90 -26 -47 -25
-73 -24 -80 5 -5 20 -23 24 -46 10 -11 -7 -6 -18 25 -55 30 -35 46 -45 70 -46
16 0 34 4 40 10 6 6 22 6 44 -1 19 -5 50 -10 68 -11 20 0 32 -5 32 -14 0 -10
-15 -13 -52 -13 -29 0 -113 -3 -186 -6 -142 -6 -185 2 -161 31 8 9 21 13 35
10 28 -7 41 9 17 22 -9 6 -18 23 -19 39 -1 15 -3 29 -3 30 -1 4 -55 -30 -85
-54 -30 -24 -30 -37 5 -102 10 -19 15 -39 12 -44 -4 -6 -1 -7 6 -2 8 4 10 17
7 31 -8 31 15 32 51 4 30 -23 53 -26 53 -6 0 8 12 17 26 20 36 9 224 -5 224
-16 0 -6 7 -8 15 -4 10 4 15 -1 15 -16 0 -18 4 -20 40 -15 22 3 47 12 55 21 9
9 19 16 23 17 4 0 17 2 30 3 39 4 47 21 31 63 -9 23 -30 48 -54 64 -21 15 -51
48 -66 74 l-28 48 -3 -34z"/>
<path d="M1668 1393 c7 -3 16 -2 19 1 4 3 -2 6 -13 5 -11 0 -14 -3 -6 -6z"/>
<path d="M2165 1357 c-5 -20 -3 -33 8 -44 13 -14 16 -13 22 7 4 12 3 25 -2 29
-6 3 -12 13 -15 21 -4 10 -8 6 -13 -13z"/>
<path d="M1435 1190 c11 -5 16 -9 11 -9 -5 -1 -3 -7 4 -15 14 -18 36 -11 43
14 4 15 -2 18 -37 18 -31 0 -36 -2 -21 -8z"/>
<path d="M1495 1150 c-3 -5 -1 -10 4 -10 6 0 11 5 11 10 0 6 -2 10 -4 10 -3 0
-8 -4 -11 -10z"/>
<path d="M1889 1156 c-3 -3 -42 -7 -89 -11 -46 -3 -86 -8 -89 -11 -3 -2 3 -12
12 -22 35 -34 175 -8 191 35 5 12 -15 19 -25 9z"/>
<path d="M1691 1134 c0 -11 3 -14 6 -6 3 7 2 16 -1 19 -3 4 -6 -2 -5 -13z"/>
<path d="M1660 711 c0 -5 5 -13 10 -16 6 -3 10 -2 10 4 0 5 -4 13 -10 16 -5 3
-10 2 -10 -4z"/>
<path d="M2728 3313 c7 -3 16 -2 19 1 4 3 -2 6 -13 5 -11 0 -14 -3 -6 -6z"/>
<path d="M2620 3290 c0 -5 5 -10 10 -10 6 0 10 5 10 10 0 6 -4 10 -10 10 -5 0
-10 -4 -10 -10z"/>
<path d="M3300 366 c0 -7 -7 -19 -15 -26 -23 -19 -18 -40 10 -40 23 0 25 4 25
40 0 22 -4 40 -10 40 -5 0 -10 -6 -10 -14z"/>
<path d="M3250 265 c-8 -9 -8 -15 -2 -15 12 0 26 19 19 26 -2 2 -10 -2 -17
-11z"/>
<path d="M3053 228 c-6 -7 -7 -22 -3 -33 7 -18 8 -17 15 8 8 32 3 43 -12 25z"/>
<path d="M3217 219 c-12 -16 -12 -26 -4 -50 11 -29 22 -34 51 -23 17 7 22 44
6 44 -5 0 -12 11 -16 25 -8 30 -18 32 -37 4z"/>
<path d="M3310 126 c0 -7 -6 -19 -14 -25 -7 -6 -12 -21 -11 -34 1 -12 3 -32 4
-44 0 -13 7 -23 16 -23 12 0 15 14 15 70 0 39 -2 70 -5 70 -3 0 -5 -6 -5 -14z"/>
</g>
</svg>
